<svg xmlns="http://www.w3.org/2000/svg" version="1.1" xmlns:xlink="http://www.w3.org/1999/xlink" xmlns:svgjs="http://svgjs.dev/svgjs" width="1440" height="700" preserveAspectRatio="none" viewBox="0 0 1440 700"><g mask="url(&quot;#SvgjsMask1032&quot;)" fill="none"><rect width="1440" height="700" x="0" y="0" fill="rgba(17, 24, 39, 1)"></rect><path d="M620.03 785.94C739.98 718.61 635.9 349.32 899.25 311.85 1162.6 274.38 1310.87 132.13 1457.69 129.85" stroke="rgba(167, 139, 250, 1)" stroke-width="2"></path><path d="M388.79 724.98C565.56 635.16 556.48 81.52 812.01 54.19 1067.54 26.86 1023.62 141.69 1235.22 141.69 1446.83 141.69 1550.4 54.65 1658.44 54.19" stroke="rgba(167, 139, 250, 1)" stroke-width="2"></path><path d="M533.91 778.05C664.57 705.64 556.97 299.48 839.16 264.38 1121.35 229.28 1291.82 104.73 1449.66 103.38" stroke="rgba(167, 139, 250, 1)" stroke-width="2"></path><path d="M196.22 784.33C370.94 780.16 500.39 543.56 849.49 535.41 1198.6 527.26 1328.39 294.4 1502.77 290.41" stroke="rgba(167, 139, 250, 1)" stroke-width="2"></path><path d="M96.57 713.97C223.78 708.16 323.11 491.52 554.61 491.16 786.11 490.8 783.63 578.66 1012.65 578.66 1241.67 578.66 1354.11 491.55 1470.69 491.16" stroke="rgba(167, 139, 250, 1)" stroke-width="2"></path></g><defs><mask id="SvgjsMask1032"><rect width="1440" height="700" fill="#ffffff"></rect></mask></defs></svg>